<svg width="520" height="60" viewBox="0 0 520 60" fill="none" xmlns="http://www.w3.org/2000/svg">
<g opacity="0.3">
<rect width="520" height="60" rx="10" fill="#369FFF"/>
<path d="M237.195 36V24.3636H241.649C242.49 24.3636 243.189 24.4962 243.746 24.7614C244.306 25.0227 244.725 25.3807 245.001 25.8352C245.282 26.2898 245.422 26.8049 245.422 27.3807C245.422 27.8542 245.331 28.2595 245.149 28.5966C244.967 28.9299 244.723 29.2008 244.416 29.4091C244.109 29.6174 243.767 29.767 243.388 29.858V29.9716C243.801 29.9943 244.196 30.1212 244.575 30.3523C244.958 30.5795 245.27 30.9015 245.513 31.3182C245.755 31.7348 245.876 32.2386 245.876 32.8295C245.876 33.4318 245.731 33.9735 245.439 34.4545C245.147 34.9318 244.708 35.3087 244.121 35.5852C243.534 35.8617 242.795 36 241.905 36H237.195ZM239.303 34.2386H241.57C242.335 34.2386 242.886 34.0928 243.223 33.8011C243.564 33.5057 243.734 33.1269 243.734 32.6648C243.734 32.3201 243.649 32.0095 243.479 31.733C243.308 31.4527 243.066 31.233 242.751 31.0739C242.437 30.911 242.062 30.8295 241.626 30.8295H239.303V34.2386ZM239.303 29.3125H241.388C241.751 29.3125 242.079 29.2462 242.371 29.1136C242.662 28.9773 242.892 28.786 243.058 28.5398C243.229 28.2898 243.314 27.9943 243.314 27.6534C243.314 27.2027 243.155 26.8314 242.837 26.5398C242.522 26.2481 242.054 26.1023 241.433 26.1023H239.303V29.3125ZM251.426 36.1705C250.574 36.1705 249.835 35.983 249.21 35.608C248.585 35.233 248.1 34.7083 247.756 34.0341C247.415 33.3598 247.244 32.572 247.244 31.6705C247.244 30.7689 247.415 29.9792 247.756 29.3011C248.1 28.6231 248.585 28.0966 249.21 27.7216C249.835 27.3466 250.574 27.1591 251.426 27.1591C252.278 27.1591 253.017 27.3466 253.642 27.7216C254.267 28.0966 254.75 28.6231 255.091 29.3011C255.436 29.9792 255.608 30.7689 255.608 31.6705C255.608 32.572 255.436 33.3598 255.091 34.0341C254.75 34.7083 254.267 35.233 253.642 35.608C253.017 35.983 252.278 36.1705 251.426 36.1705ZM251.438 34.5227C251.9 34.5227 252.286 34.3958 252.597 34.142C252.907 33.8845 253.138 33.5398 253.29 33.108C253.445 32.6761 253.523 32.1951 253.523 31.6648C253.523 31.1307 253.445 30.6477 253.29 30.2159C253.138 29.7803 252.907 29.4337 252.597 29.1761C252.286 28.9186 251.9 28.7898 251.438 28.7898C250.964 28.7898 250.57 28.9186 250.256 29.1761C249.945 29.4337 249.712 29.7803 249.557 30.2159C249.405 30.6477 249.33 31.1307 249.33 31.6648C249.33 32.1951 249.405 32.6761 249.557 33.108C249.712 33.5398 249.945 33.8845 250.256 34.142C250.57 34.3958 250.964 34.5227 251.438 34.5227ZM259.337 33.2159L262.831 27.2727H264.945V36H262.956V30.0511L259.473 36H257.354V27.2727H259.337V33.2159ZM262.268 24.2727H263.808C263.808 24.9356 263.568 25.4735 263.087 25.8864C262.609 26.2955 261.962 26.5 261.143 26.5C260.333 26.5 259.687 26.2955 259.206 25.8864C258.729 25.4735 258.492 24.9356 258.496 24.2727H260.024C260.024 24.5455 260.107 24.7898 260.274 25.0057C260.445 25.2178 260.734 25.3239 261.143 25.3239C261.545 25.3239 261.831 25.2178 262.001 25.0057C262.176 24.7936 262.265 24.5492 262.268 24.2727ZM266.08 28.9602V27.2727H273.716V28.9602H270.892V36H268.903V28.9602H266.08ZM277.337 33.2159L280.831 27.2727H282.945V36H280.956V30.0511L277.473 36H275.354V27.2727H277.337V33.2159Z" fill="white"/>
</g>
</svg>
