<svg width="520" height="60" viewBox="0 0 520 60" fill="none" xmlns="http://www.w3.org/2000/svg">
<g opacity="0.3">
<rect width="520" height="60" rx="10" fill="#369FFF"/>
<path d="M181.429 36.1591C180.611 36.1591 179.884 36.0189 179.247 35.7386C178.615 35.4583 178.115 35.0682 177.747 34.5682C177.38 34.0682 177.185 33.4905 177.162 32.8352H179.298C179.317 33.1496 179.421 33.4242 179.611 33.6591C179.8 33.8902 180.052 34.0701 180.366 34.1989C180.681 34.3277 181.033 34.392 181.423 34.392C181.84 34.392 182.209 34.3201 182.531 34.1761C182.853 34.0284 183.105 33.8239 183.287 33.5625C183.469 33.3011 183.558 33 183.554 32.6591C183.558 32.3068 183.467 31.9962 183.281 31.7273C183.096 31.4583 182.827 31.2481 182.474 31.0966C182.126 30.9451 181.705 30.8693 181.213 30.8693H180.185V29.2443H181.213C181.618 29.2443 181.973 29.1742 182.276 29.0341C182.582 28.8939 182.823 28.697 182.997 28.4432C183.171 28.1856 183.257 27.8883 183.253 27.5511C183.257 27.2216 183.183 26.9356 183.031 26.6932C182.884 26.447 182.673 26.2557 182.401 26.1193C182.132 25.983 181.815 25.9148 181.452 25.9148C181.096 25.9148 180.766 25.9792 180.463 26.108C180.16 26.2367 179.916 26.4205 179.73 26.6591C179.545 26.8939 179.446 27.1742 179.435 27.5H177.406C177.421 26.8485 177.609 26.2765 177.969 25.7841C178.332 25.2879 178.817 24.9015 179.423 24.625C180.029 24.3447 180.709 24.2045 181.463 24.2045C182.24 24.2045 182.914 24.3504 183.486 24.642C184.062 24.9299 184.507 25.3182 184.821 25.8068C185.135 26.2955 185.293 26.8352 185.293 27.4261C185.296 28.0814 185.103 28.6307 184.713 29.0739C184.327 29.517 183.819 29.8068 183.19 29.9432V30.0341C184.009 30.1477 184.635 30.4508 185.071 30.9432C185.51 31.4318 185.728 32.0398 185.724 32.767C185.724 33.4186 185.539 34.0019 185.168 34.517C184.8 35.0284 184.293 35.4299 183.645 35.7216C183.001 36.0133 182.262 36.1591 181.429 36.1591ZM190.209 36.1761C189.656 36.1761 189.158 36.0777 188.714 35.8807C188.275 35.6799 187.927 35.3845 187.669 34.9943C187.415 34.6042 187.288 34.1231 187.288 33.5511C187.288 33.0587 187.379 32.6515 187.561 32.3295C187.743 32.0076 187.991 31.75 188.305 31.5568C188.62 31.3636 188.974 31.2178 189.368 31.1193C189.766 31.017 190.177 30.9432 190.601 30.8977C191.112 30.8447 191.527 30.7973 191.845 30.7557C192.163 30.7102 192.394 30.642 192.538 30.5511C192.686 30.4564 192.76 30.3106 192.76 30.1136V30.0795C192.76 29.6515 192.633 29.3201 192.379 29.0852C192.125 28.8504 191.76 28.733 191.283 28.733C190.779 28.733 190.379 28.8428 190.084 29.0625C189.792 29.2822 189.595 29.5417 189.493 29.8409L187.572 29.5682C187.724 29.0379 187.974 28.5947 188.322 28.2386C188.671 27.8788 189.097 27.6098 189.601 27.4318C190.105 27.25 190.661 27.1591 191.271 27.1591C191.692 27.1591 192.11 27.2083 192.527 27.3068C192.944 27.4053 193.324 27.5682 193.669 27.7955C194.014 28.0189 194.29 28.3239 194.499 28.7102C194.711 29.0966 194.817 29.5795 194.817 30.1591V36H192.839V34.8011H192.771C192.646 35.0436 192.47 35.2708 192.243 35.483C192.019 35.6913 191.737 35.8598 191.396 35.9886C191.059 36.1136 190.663 36.1761 190.209 36.1761ZM190.743 34.6648C191.156 34.6648 191.514 34.5833 191.817 34.4205C192.12 34.2538 192.353 34.0341 192.516 33.7614C192.682 33.4886 192.766 33.1913 192.766 32.8693V31.8409C192.701 31.8939 192.591 31.9432 192.436 31.9886C192.285 32.0341 192.114 32.0739 191.925 32.108C191.735 32.142 191.548 32.1723 191.362 32.1989C191.177 32.2254 191.016 32.2481 190.879 32.267C190.572 32.3087 190.298 32.3769 190.055 32.4716C189.813 32.5663 189.622 32.6989 189.482 32.8693C189.341 33.036 189.271 33.2519 189.271 33.517C189.271 33.8958 189.41 34.1818 189.686 34.375C189.963 34.5682 190.315 34.6648 190.743 34.6648ZM196.885 39.2727V27.2727H198.908V28.7159H199.027C199.133 28.5038 199.283 28.2784 199.476 28.0398C199.669 27.7973 199.93 27.5909 200.26 27.4205C200.589 27.2462 201.01 27.1591 201.521 27.1591C202.196 27.1591 202.804 27.3314 203.345 27.6761C203.891 28.017 204.322 28.5227 204.641 29.1932C204.963 29.8598 205.124 30.678 205.124 31.6477C205.124 32.6061 204.966 33.4205 204.652 34.0909C204.338 34.7614 203.91 35.2727 203.368 35.625C202.826 35.9773 202.213 36.1534 201.527 36.1534C201.027 36.1534 200.612 36.0701 200.283 35.9034C199.953 35.7367 199.688 35.536 199.487 35.3011C199.29 35.0625 199.137 34.8371 199.027 34.625H198.942V39.2727H196.885ZM198.902 31.6364C198.902 32.2008 198.982 32.6951 199.141 33.1193C199.304 33.5436 199.536 33.875 199.839 34.1136C200.146 34.3485 200.518 34.4659 200.953 34.4659C201.408 34.4659 201.788 34.3447 202.095 34.1023C202.402 33.8561 202.633 33.5208 202.788 33.0966C202.947 32.6686 203.027 32.1818 203.027 31.6364C203.027 31.0947 202.949 30.6136 202.794 30.1932C202.639 29.7727 202.408 29.4432 202.101 29.2045C201.794 28.9659 201.411 28.8466 200.953 28.8466C200.514 28.8466 200.141 28.9621 199.834 29.1932C199.527 29.4242 199.294 29.7481 199.135 30.1648C198.98 30.5814 198.902 31.072 198.902 31.6364ZM210.749 36.1705C209.874 36.1705 209.118 35.9886 208.482 35.625C207.849 35.2576 207.362 34.7386 207.021 34.0682C206.68 33.3939 206.51 32.6004 206.51 31.6875C206.51 30.7898 206.68 30.0019 207.021 29.3239C207.366 28.642 207.847 28.1117 208.464 27.733C209.082 27.3504 209.807 27.1591 210.641 27.1591C211.179 27.1591 211.686 27.2462 212.163 27.4205C212.644 27.5909 213.069 27.8561 213.436 28.2159C213.807 28.5758 214.099 29.0341 214.311 29.5909C214.523 30.1439 214.629 30.803 214.629 31.5682V32.1989H207.476V30.8125H212.658C212.654 30.4186 212.569 30.0682 212.402 29.7614C212.235 29.4508 212.002 29.2064 211.703 29.0284C211.408 28.8504 211.063 28.7614 210.669 28.7614C210.249 28.7614 209.879 28.8636 209.561 29.0682C209.243 29.2689 208.995 29.5341 208.817 29.8636C208.643 30.1894 208.554 30.5473 208.55 30.9375V32.1477C208.55 32.6553 208.643 33.0909 208.828 33.4545C209.014 33.8144 209.273 34.0909 209.607 34.2841C209.94 34.4735 210.33 34.5682 210.777 34.5682C211.076 34.5682 211.347 34.5265 211.589 34.4432C211.832 34.3561 212.042 34.2292 212.22 34.0625C212.398 33.8958 212.533 33.6894 212.624 33.4432L214.544 33.6591C214.423 34.1667 214.192 34.6098 213.851 34.9886C213.514 35.3636 213.082 35.6553 212.555 35.8636C212.029 36.0682 211.427 36.1705 210.749 36.1705ZM222.142 27.2727V28.9602H218.381V36H216.369V27.2727H222.142ZM225.774 33.2159L229.268 27.2727H231.382V36H229.393V30.0511L225.911 36H223.791V27.2727H225.774V33.2159ZM237.301 36.1705C236.43 36.1705 235.682 35.9792 235.057 35.5966C234.436 35.214 233.956 34.6856 233.619 34.0114C233.286 33.3333 233.119 32.553 233.119 31.6705C233.119 30.7841 233.29 30.0019 233.631 29.3239C233.972 28.642 234.453 28.1117 235.074 27.733C235.699 27.3504 236.438 27.1591 237.29 27.1591C237.998 27.1591 238.625 27.2898 239.17 27.5511C239.72 27.8087 240.157 28.1742 240.483 28.6477C240.809 29.1174 240.994 29.6667 241.04 30.2955H239.074C238.994 29.875 238.805 29.5246 238.506 29.2443C238.21 28.9602 237.814 28.8182 237.318 28.8182C236.898 28.8182 236.528 28.9318 236.21 29.1591C235.892 29.3826 235.644 29.7045 235.466 30.125C235.292 30.5455 235.205 31.0492 235.205 31.6364C235.205 32.2311 235.292 32.7424 235.466 33.1705C235.64 33.5947 235.884 33.9223 236.199 34.1534C236.517 34.3807 236.89 34.4943 237.318 34.4943C237.621 34.4943 237.892 34.4375 238.131 34.3239C238.373 34.2064 238.576 34.0379 238.739 33.8182C238.902 33.5985 239.013 33.3314 239.074 33.017H241.04C240.991 33.6345 240.809 34.1818 240.494 34.6591C240.18 35.1326 239.752 35.5038 239.21 35.7727C238.669 36.0379 238.032 36.1705 237.301 36.1705ZM242.095 28.9602V27.2727H249.732V28.9602H246.908V36H244.919V28.9602H242.095ZM251.369 39.2727V27.2727H253.392V28.7159H253.511C253.617 28.5038 253.767 28.2784 253.96 28.0398C254.153 27.7973 254.415 27.5909 254.744 27.4205C255.074 27.2462 255.494 27.1591 256.006 27.1591C256.68 27.1591 257.288 27.3314 257.83 27.6761C258.375 28.017 258.807 28.5227 259.125 29.1932C259.447 29.8598 259.608 30.678 259.608 31.6477C259.608 32.6061 259.451 33.4205 259.136 34.0909C258.822 34.7614 258.394 35.2727 257.852 35.625C257.311 35.9773 256.697 36.1534 256.011 36.1534C255.511 36.1534 255.097 36.0701 254.767 35.9034C254.438 35.7367 254.172 35.536 253.972 35.3011C253.775 35.0625 253.621 34.8371 253.511 34.625H253.426V39.2727H251.369ZM253.386 31.6364C253.386 32.2008 253.466 32.6951 253.625 33.1193C253.788 33.5436 254.021 33.875 254.324 34.1136C254.631 34.3485 255.002 34.4659 255.438 34.4659C255.892 34.4659 256.273 34.3447 256.58 34.1023C256.886 33.8561 257.117 33.5208 257.273 33.0966C257.432 32.6686 257.511 32.1818 257.511 31.6364C257.511 31.0947 257.434 30.6136 257.278 30.1932C257.123 29.7727 256.892 29.4432 256.585 29.2045C256.278 28.9659 255.896 28.8466 255.438 28.8466C254.998 28.8466 254.625 28.9621 254.318 29.1932C254.011 29.4242 253.778 29.7481 253.619 30.1648C253.464 30.5814 253.386 31.072 253.386 31.6364ZM263.352 33.2159L266.847 27.2727H268.96V36H266.972V30.0511L263.489 36H261.369V27.2727H263.352V33.2159ZM271.072 39.2727V27.2727H273.095V28.7159H273.214C273.321 28.5038 273.47 28.2784 273.663 28.0398C273.857 27.7973 274.118 27.5909 274.447 27.4205C274.777 27.2462 275.197 27.1591 275.709 27.1591C276.383 27.1591 276.991 27.3314 277.533 27.6761C278.078 28.017 278.51 28.5227 278.828 29.1932C279.15 29.8598 279.311 30.678 279.311 31.6477C279.311 32.6061 279.154 33.4205 278.839 34.0909C278.525 34.7614 278.097 35.2727 277.555 35.625C277.014 35.9773 276.4 36.1534 275.714 36.1534C275.214 36.1534 274.8 36.0701 274.47 35.9034C274.141 35.7367 273.875 35.536 273.675 35.3011C273.478 35.0625 273.324 34.8371 273.214 34.625H273.129V39.2727H271.072ZM273.089 31.6364C273.089 32.2008 273.169 32.6951 273.328 33.1193C273.491 33.5436 273.724 33.875 274.027 34.1136C274.334 34.3485 274.705 34.4659 275.141 34.4659C275.595 34.4659 275.976 34.3447 276.283 34.1023C276.589 33.8561 276.821 33.5208 276.976 33.0966C277.135 32.6686 277.214 32.1818 277.214 31.6364C277.214 31.0947 277.137 30.6136 276.982 30.1932C276.826 29.7727 276.595 29.4432 276.288 29.2045C275.982 28.9659 275.599 28.8466 275.141 28.8466C274.701 28.8466 274.328 28.9621 274.021 29.1932C273.714 29.4242 273.482 29.7481 273.322 30.1648C273.167 30.5814 273.089 31.072 273.089 31.6364ZM284.879 36.1705C284.027 36.1705 283.288 35.983 282.663 35.608C282.038 35.233 281.554 34.7083 281.209 34.0341C280.868 33.3598 280.697 32.572 280.697 31.6705C280.697 30.7689 280.868 29.9792 281.209 29.3011C281.554 28.6231 282.038 28.0966 282.663 27.7216C283.288 27.3466 284.027 27.1591 284.879 27.1591C285.732 27.1591 286.47 27.3466 287.095 27.7216C287.72 28.0966 288.203 28.6231 288.544 29.3011C288.889 29.9792 289.061 30.7689 289.061 31.6705C289.061 32.572 288.889 33.3598 288.544 34.0341C288.203 34.7083 287.72 35.233 287.095 35.608C286.47 35.983 285.732 36.1705 284.879 36.1705ZM284.891 34.5227C285.353 34.5227 285.739 34.3958 286.05 34.142C286.36 33.8845 286.591 33.5398 286.743 33.108C286.898 32.6761 286.976 32.1951 286.976 31.6648C286.976 31.1307 286.898 30.6477 286.743 30.2159C286.591 29.7803 286.36 29.4337 286.05 29.1761C285.739 28.9186 285.353 28.7898 284.891 28.7898C284.417 28.7898 284.023 28.9186 283.709 29.1761C283.398 29.4337 283.165 29.7803 283.01 30.2159C282.858 30.6477 282.783 31.1307 282.783 31.6648C282.783 32.1951 282.858 32.6761 283.01 33.108C283.165 33.5398 283.398 33.8845 283.709 34.142C284.023 34.3958 284.417 34.5227 284.891 34.5227ZM290.807 36V27.2727H294.472C295.506 27.2727 296.322 27.4792 296.92 27.892C297.523 28.3049 297.824 28.8807 297.824 29.6193C297.824 30.108 297.653 30.5076 297.312 30.8182C296.975 31.125 296.515 31.3314 295.932 31.4375C296.39 31.4754 296.792 31.5909 297.136 31.7841C297.485 31.9773 297.758 32.2311 297.955 32.5455C298.152 32.8598 298.25 33.2216 298.25 33.6307C298.25 34.1117 298.123 34.5303 297.869 34.8864C297.619 35.2386 297.254 35.5133 296.773 35.7102C296.295 35.9034 295.716 36 295.034 36H290.807ZM292.733 34.3807H295.034C295.413 34.3807 295.71 34.2917 295.926 34.1136C296.142 33.9318 296.25 33.6856 296.25 33.375C296.25 33.0152 296.142 32.733 295.926 32.5284C295.71 32.3201 295.413 32.2159 295.034 32.2159H292.733V34.3807ZM292.733 30.8864H294.511C294.792 30.8864 295.032 30.8466 295.233 30.767C295.434 30.6837 295.587 30.5682 295.693 30.4205C295.799 30.2689 295.852 30.089 295.852 29.8807C295.852 29.5814 295.729 29.3466 295.483 29.1761C295.241 29.0057 294.903 28.9205 294.472 28.9205H292.733V30.8864ZM302.459 36.1761C301.906 36.1761 301.408 36.0777 300.964 35.8807C300.525 35.6799 300.177 35.3845 299.919 34.9943C299.665 34.6042 299.538 34.1231 299.538 33.5511C299.538 33.0587 299.629 32.6515 299.811 32.3295C299.993 32.0076 300.241 31.75 300.555 31.5568C300.87 31.3636 301.224 31.2178 301.618 31.1193C302.016 31.017 302.427 30.9432 302.851 30.8977C303.362 30.8447 303.777 30.7973 304.095 30.7557C304.413 30.7102 304.644 30.642 304.788 30.5511C304.936 30.4564 305.01 30.3106 305.01 30.1136V30.0795C305.01 29.6515 304.883 29.3201 304.629 29.0852C304.375 28.8504 304.01 28.733 303.533 28.733C303.029 28.733 302.629 28.8428 302.334 29.0625C302.042 29.2822 301.845 29.5417 301.743 29.8409L299.822 29.5682C299.974 29.0379 300.224 28.5947 300.572 28.2386C300.921 27.8788 301.347 27.6098 301.851 27.4318C302.355 27.25 302.911 27.1591 303.521 27.1591C303.942 27.1591 304.36 27.2083 304.777 27.3068C305.194 27.4053 305.574 27.5682 305.919 27.7955C306.264 28.0189 306.54 28.3239 306.749 28.7102C306.961 29.0966 307.067 29.5795 307.067 30.1591V36H305.089V34.8011H305.021C304.896 35.0436 304.72 35.2708 304.493 35.483C304.269 35.6913 303.987 35.8598 303.646 35.9886C303.309 36.1136 302.913 36.1761 302.459 36.1761ZM302.993 34.6648C303.406 34.6648 303.764 34.5833 304.067 34.4205C304.37 34.2538 304.603 34.0341 304.766 33.7614C304.932 33.4886 305.016 33.1913 305.016 32.8693V31.8409C304.951 31.8939 304.841 31.9432 304.686 31.9886C304.535 32.0341 304.364 32.0739 304.175 32.108C303.985 32.142 303.798 32.1723 303.612 32.1989C303.427 32.2254 303.266 32.2481 303.129 32.267C302.822 32.3087 302.548 32.3769 302.305 32.4716C302.063 32.5663 301.872 32.6989 301.732 32.8693C301.591 33.036 301.521 33.2519 301.521 33.517C301.521 33.8958 301.66 34.1818 301.936 34.375C302.213 34.5682 302.565 34.6648 302.993 34.6648ZM308.158 28.9602V27.2727H315.794V28.9602H312.97V36H310.982V28.9602H308.158ZM318.824 30.1136H321.398C322.511 30.1136 323.373 30.3845 323.983 30.9261C324.593 31.4678 324.9 32.178 324.903 33.0568C324.9 33.6288 324.759 34.1364 324.483 34.5795C324.21 35.0227 323.813 35.3712 323.29 35.625C322.771 35.875 322.14 36 321.398 36H317.432V27.2727H319.415V34.3125H321.398C321.845 34.3125 322.212 34.1989 322.5 33.9716C322.788 33.7405 322.932 33.4451 322.932 33.0852C322.932 32.7064 322.788 32.3977 322.5 32.1591C322.212 31.9205 321.845 31.8011 321.398 31.8011H318.824V30.1136ZM330.473 36.1705C329.602 36.1705 328.854 35.9792 328.229 35.5966C327.607 35.214 327.128 34.6856 326.791 34.0114C326.458 33.3333 326.291 32.553 326.291 31.6705C326.291 30.7841 326.462 30.0019 326.803 29.3239C327.143 28.642 327.625 28.1117 328.246 27.733C328.871 27.3504 329.609 27.1591 330.462 27.1591C331.17 27.1591 331.797 27.2898 332.342 27.5511C332.892 27.8087 333.329 28.1742 333.655 28.6477C333.981 29.1174 334.166 29.6667 334.212 30.2955H332.246C332.166 29.875 331.977 29.5246 331.678 29.2443C331.382 28.9602 330.986 28.8182 330.49 28.8182C330.07 28.8182 329.7 28.9318 329.382 29.1591C329.064 29.3826 328.816 29.7045 328.638 30.125C328.464 30.5455 328.376 31.0492 328.376 31.6364C328.376 32.2311 328.464 32.7424 328.638 33.1705C328.812 33.5947 329.056 33.9223 329.371 34.1534C329.689 34.3807 330.062 34.4943 330.49 34.4943C330.793 34.4943 331.064 34.4375 331.303 34.3239C331.545 34.2064 331.748 34.0379 331.911 33.8182C332.073 33.5985 332.185 33.3314 332.246 33.017H334.212C334.162 33.6345 333.981 34.1818 333.666 34.6591C333.352 35.1326 332.924 35.5038 332.382 35.7727C331.84 36.0379 331.204 36.1705 330.473 36.1705ZM341.06 36V28.9432H339.196C338.723 28.9432 338.359 29.053 338.105 29.2727C337.851 29.4924 337.726 29.7652 337.73 30.0909C337.726 30.4167 337.846 30.6856 338.088 30.8977C338.33 31.1098 338.677 31.2159 339.128 31.2159H341.707V32.7159H339.128C338.431 32.7159 337.829 32.6061 337.321 32.3864C336.813 32.1667 336.423 31.8561 336.151 31.4545C335.878 31.053 335.741 30.5833 335.741 30.0455C335.741 29.4848 335.88 28.9981 336.156 28.5852C336.437 28.1686 336.834 27.8466 337.349 27.6193C337.868 27.3883 338.484 27.2727 339.196 27.2727H342.986V36H341.06ZM335.423 36L337.861 31.5227H339.889L337.446 36H335.423Z" fill="white"/>
</g>
</svg>
