<svg width="231" height="60" viewBox="0 0 231 60" fill="none" xmlns="http://www.w3.org/2000/svg">
<rect width="231" height="60" rx="10" fill="#369FFF"/>
<rect x="22" y="29" width="16" height="2" rx="1" fill="white"/>
<rect x="31" y="22" width="16" height="2" rx="1" transform="rotate(90 31 22)" fill="white"/>
<path d="M50.9858 38.8068V34.2784H51.7642C52.0256 34.0701 52.2699 33.7765 52.4972 33.3977C52.7244 33.0189 52.9176 32.5 53.0767 31.8409C53.2358 31.1818 53.3456 30.3295 53.4062 29.2841L53.7131 24.3636H61.1506V34.2784H62.446V38.7955H60.4233V36H53.0085V38.8068H50.9858ZM54.2188 34.2784H59.1278V26.1307H55.6108L55.429 29.2841C55.3797 30.0758 55.3002 30.7841 55.1903 31.4091C55.0805 32.0341 54.9422 32.5852 54.7756 33.0625C54.6089 33.536 54.4233 33.9413 54.2188 34.2784ZM67.8793 36.1705C67.027 36.1705 66.2884 35.983 65.6634 35.608C65.0384 35.233 64.5535 34.7083 64.2088 34.0341C63.8679 33.3598 63.6974 32.572 63.6974 31.6705C63.6974 30.7689 63.8679 29.9792 64.2088 29.3011C64.5535 28.6231 65.0384 28.0966 65.6634 27.7216C66.2884 27.3466 67.027 27.1591 67.8793 27.1591C68.7315 27.1591 69.4702 27.3466 70.0952 27.7216C70.7202 28.0966 71.2031 28.6231 71.544 29.3011C71.8887 29.9792 72.0611 30.7689 72.0611 31.6705C72.0611 32.572 71.8887 33.3598 71.544 34.0341C71.2031 34.7083 70.7202 35.233 70.0952 35.608C69.4702 35.983 68.7315 36.1705 67.8793 36.1705ZM67.8906 34.5227C68.3527 34.5227 68.7391 34.3958 69.0497 34.142C69.3603 33.8845 69.5914 33.5398 69.7429 33.108C69.8982 32.6761 69.9759 32.1951 69.9759 31.6648C69.9759 31.1307 69.8982 30.6477 69.7429 30.2159C69.5914 29.7803 69.3603 29.4337 69.0497 29.1761C68.7391 28.9186 68.3527 28.7898 67.8906 28.7898C67.4171 28.7898 67.0232 28.9186 66.7088 29.1761C66.3982 29.4337 66.1652 29.7803 66.0099 30.2159C65.8584 30.6477 65.7827 31.1307 65.7827 31.6648C65.7827 32.1951 65.8584 32.6761 66.0099 33.108C66.1652 33.5398 66.3982 33.8845 66.7088 34.142C67.0232 34.3958 67.4171 34.5227 67.8906 34.5227ZM80.8011 24.0455L81.517 25.375C81.2633 25.5947 80.9792 25.7538 80.6648 25.8523C80.3504 25.9508 79.9811 26.0152 79.5568 26.0455C79.1364 26.072 78.6364 26.0909 78.0568 26.1023C77.4053 26.1174 76.8731 26.2405 76.4602 26.4716C76.0473 26.7027 75.7311 27.053 75.5114 27.5227C75.2917 27.9886 75.1477 28.5833 75.0795 29.3068H75.1761C75.4489 28.7727 75.8314 28.3655 76.3239 28.0852C76.8163 27.8049 77.3939 27.6648 78.0568 27.6648C78.7803 27.6648 79.4186 27.8277 79.9716 28.1534C80.5284 28.4754 80.9621 28.9432 81.2727 29.5568C81.5871 30.1705 81.7443 30.9129 81.7443 31.7841C81.7443 32.6818 81.5758 33.4602 81.2386 34.1193C80.9015 34.7746 80.4223 35.2803 79.8011 35.6364C79.1837 35.9924 78.4508 36.1705 77.6023 36.1705C76.7576 36.1705 76.0227 35.9867 75.3977 35.6193C74.7765 35.2481 74.2955 34.7008 73.9545 33.9773C73.6174 33.25 73.4489 32.3542 73.4489 31.2898V30.5057C73.4489 28.4527 73.8314 26.9205 74.5966 25.9091C75.3617 24.8977 76.4962 24.3826 78 24.3636C78.447 24.3561 78.8466 24.3542 79.1989 24.358C79.5549 24.3617 79.8655 24.3447 80.1307 24.3068C80.3958 24.2689 80.6193 24.1818 80.8011 24.0455ZM77.6136 34.5227C78.0341 34.5227 78.3977 34.4148 78.7045 34.1989C79.0114 33.9792 79.2462 33.6686 79.4091 33.267C79.5758 32.8655 79.6591 32.3902 79.6591 31.8409C79.6591 31.2992 79.5758 30.839 79.4091 30.4602C79.2424 30.0777 79.0057 29.786 78.6989 29.5852C78.392 29.3845 78.0265 29.2841 77.6023 29.2841C77.2841 29.2841 76.9981 29.3409 76.7443 29.4545C76.4905 29.5682 76.2746 29.7348 76.0966 29.9545C75.9186 30.1742 75.7822 30.4413 75.6875 30.7557C75.5928 31.0701 75.5417 31.4318 75.5341 31.8409C75.5341 32.6629 75.7197 33.3163 76.0909 33.8011C76.4621 34.2822 76.9697 34.5227 77.6136 34.5227ZM86.0057 36.1761C85.4527 36.1761 84.9545 36.0777 84.5114 35.8807C84.072 35.6799 83.7235 35.3845 83.4659 34.9943C83.2121 34.6042 83.0852 34.1231 83.0852 33.5511C83.0852 33.0587 83.1761 32.6515 83.358 32.3295C83.5398 32.0076 83.7879 31.75 84.1023 31.5568C84.4167 31.3636 84.7708 31.2178 85.1648 31.1193C85.5625 31.017 85.9735 30.9432 86.3977 30.8977C86.9091 30.8447 87.3239 30.7973 87.642 30.7557C87.9602 30.7102 88.1913 30.642 88.3352 30.5511C88.483 30.4564 88.5568 30.3106 88.5568 30.1136V30.0795C88.5568 29.6515 88.4299 29.3201 88.1761 29.0852C87.9223 28.8504 87.5568 28.733 87.0795 28.733C86.5758 28.733 86.1761 28.8428 85.8807 29.0625C85.589 29.2822 85.392 29.5417 85.2898 29.8409L83.3693 29.5682C83.5208 29.0379 83.7708 28.5947 84.1193 28.2386C84.4678 27.8788 84.8939 27.6098 85.3977 27.4318C85.9015 27.25 86.4583 27.1591 87.0682 27.1591C87.4886 27.1591 87.9072 27.2083 88.3239 27.3068C88.7405 27.4053 89.1212 27.5682 89.4659 27.7955C89.8106 28.0189 90.0871 28.3239 90.2955 28.7102C90.5076 29.0966 90.6136 29.5795 90.6136 30.1591V36H88.6364V34.8011H88.5682C88.4432 35.0436 88.267 35.2708 88.0398 35.483C87.8163 35.6913 87.5341 35.8598 87.1932 35.9886C86.8561 36.1136 86.4602 36.1761 86.0057 36.1761ZM86.5398 34.6648C86.9527 34.6648 87.3106 34.5833 87.6136 34.4205C87.9167 34.2538 88.1496 34.0341 88.3125 33.7614C88.4792 33.4886 88.5625 33.1913 88.5625 32.8693V31.8409C88.4981 31.8939 88.3883 31.9432 88.233 31.9886C88.0814 32.0341 87.911 32.0739 87.7216 32.108C87.5322 32.142 87.3447 32.1723 87.1591 32.1989C86.9735 32.2254 86.8125 32.2481 86.6761 32.267C86.3693 32.3087 86.0947 32.3769 85.8523 32.4716C85.6098 32.5663 85.4186 32.6989 85.2784 32.8693C85.1383 33.036 85.0682 33.2519 85.0682 33.517C85.0682 33.8958 85.2064 34.1818 85.483 34.375C85.7595 34.5682 86.1117 34.6648 86.5398 34.6648ZM92.6818 36V27.2727H96.3466C97.3807 27.2727 98.197 27.4792 98.7955 27.892C99.3977 28.3049 99.6989 28.8807 99.6989 29.6193C99.6989 30.108 99.5284 30.5076 99.1875 30.8182C98.8504 31.125 98.3902 31.3314 97.8068 31.4375C98.2652 31.4754 98.6667 31.5909 99.0114 31.7841C99.3598 31.9773 99.6326 32.2311 99.8295 32.5455C100.027 32.8598 100.125 33.2216 100.125 33.6307C100.125 34.1117 99.9981 34.5303 99.7443 34.8864C99.4943 35.2386 99.1288 35.5133 98.6477 35.7102C98.1705 35.9034 97.5909 36 96.9091 36H92.6818ZM94.608 34.3807H96.9091C97.2879 34.3807 97.5852 34.2917 97.8011 34.1136C98.017 33.9318 98.125 33.6856 98.125 33.375C98.125 33.0152 98.017 32.733 97.8011 32.5284C97.5852 32.3201 97.2879 32.2159 96.9091 32.2159H94.608V34.3807ZM94.608 30.8864H96.3864C96.6667 30.8864 96.9072 30.8466 97.108 30.767C97.3087 30.6837 97.4621 30.5682 97.5682 30.4205C97.6742 30.2689 97.7273 30.089 97.7273 29.8807C97.7273 29.5814 97.6042 29.3466 97.358 29.1761C97.1155 29.0057 96.7784 28.9205 96.3466 28.9205H94.608V30.8864ZM103.805 33.2159L107.3 27.2727H109.413V36H107.425V30.0511L103.942 36H101.822V27.2727H103.805V33.2159ZM110.548 28.9602V27.2727H118.185V28.9602H115.361V36H113.372V28.9602H110.548ZM121.214 30.1136H123.788C124.902 30.1136 125.764 30.3845 126.374 30.9261C126.983 31.4678 127.29 32.178 127.294 33.0568C127.29 33.6288 127.15 34.1364 126.874 34.5795C126.601 35.0227 126.203 35.3712 125.68 35.625C125.161 35.875 124.531 36 123.788 36H119.822V27.2727H121.805V34.3125H123.788C124.235 34.3125 124.603 34.1989 124.891 33.9716C125.179 33.7405 125.322 33.4451 125.322 33.0852C125.322 32.7064 125.179 32.3977 124.891 32.1591C124.603 31.9205 124.235 31.8011 123.788 31.8011H121.214V30.1136ZM136.832 36.1705C135.961 36.1705 135.213 35.9792 134.588 35.5966C133.967 35.214 133.488 34.6856 133.151 34.0114C132.817 33.3333 132.651 32.553 132.651 31.6705C132.651 30.7841 132.821 30.0019 133.162 29.3239C133.503 28.642 133.984 28.1117 134.605 27.733C135.23 27.3504 135.969 27.1591 136.821 27.1591C137.529 27.1591 138.156 27.2898 138.702 27.5511C139.251 27.8087 139.688 28.1742 140.014 28.6477C140.34 29.1174 140.526 29.6667 140.571 30.2955H138.605C138.526 29.875 138.336 29.5246 138.037 29.2443C137.741 28.9602 137.346 28.8182 136.849 28.8182C136.429 28.8182 136.06 28.9318 135.741 29.1591C135.423 29.3826 135.175 29.7045 134.997 30.125C134.823 30.5455 134.736 31.0492 134.736 31.6364C134.736 32.2311 134.823 32.7424 134.997 33.1705C135.171 33.5947 135.416 33.9223 135.73 34.1534C136.048 34.3807 136.421 34.4943 136.849 34.4943C137.152 34.4943 137.423 34.4375 137.662 34.3239C137.904 34.2064 138.107 34.0379 138.27 33.8182C138.433 33.5985 138.545 33.3314 138.605 33.017H140.571C140.522 33.6345 140.34 34.1818 140.026 34.6591C139.711 35.1326 139.283 35.5038 138.741 35.7727C138.2 36.0379 137.563 36.1705 136.832 36.1705ZM142.26 36V27.2727H144.317V30.7955H145.067L147.692 27.2727H150.169L146.936 31.5568L150.203 36H147.714L145.322 32.7102H144.317V36H142.26ZM151.369 39.2727V27.2727H153.392V28.7159H153.511C153.617 28.5038 153.767 28.2784 153.96 28.0398C154.153 27.7973 154.415 27.5909 154.744 27.4205C155.074 27.2462 155.494 27.1591 156.006 27.1591C156.68 27.1591 157.288 27.3314 157.83 27.6761C158.375 28.017 158.807 28.5227 159.125 29.1932C159.447 29.8598 159.608 30.678 159.608 31.6477C159.608 32.6061 159.451 33.4205 159.136 34.0909C158.822 34.7614 158.394 35.2727 157.852 35.625C157.311 35.9773 156.697 36.1534 156.011 36.1534C155.511 36.1534 155.097 36.0701 154.767 35.9034C154.438 35.7367 154.172 35.536 153.972 35.3011C153.775 35.0625 153.621 34.8371 153.511 34.625H153.426V39.2727H151.369ZM153.386 31.6364C153.386 32.2008 153.466 32.6951 153.625 33.1193C153.788 33.5436 154.021 33.875 154.324 34.1136C154.631 34.3485 155.002 34.4659 155.438 34.4659C155.892 34.4659 156.273 34.3447 156.58 34.1023C156.886 33.8561 157.117 33.5208 157.273 33.0966C157.432 32.6686 157.511 32.1818 157.511 31.6364C157.511 31.0947 157.434 30.6136 157.278 30.1932C157.123 29.7727 156.892 29.4432 156.585 29.2045C156.278 28.9659 155.896 28.8466 155.438 28.8466C154.998 28.8466 154.625 28.9621 154.318 29.1932C154.011 29.4242 153.778 29.7481 153.619 30.1648C153.464 30.5814 153.386 31.072 153.386 31.6364ZM163.352 33.2159L166.847 27.2727H168.96V36H166.972V30.0511L163.489 36H161.369V27.2727H163.352V33.2159ZM177.067 30.7841V32.4716H172.419V30.7841H177.067ZM173.055 27.2727V36H171.072V27.2727H173.055ZM178.413 27.2727V36H176.436V27.2727H178.413ZM180.494 27.2727H182.477V34.3068H185.222V27.2727H187.205V34.3068H189.949V27.2727H191.932V36H180.494V27.2727ZM197.817 36.1705C196.964 36.1705 196.226 35.983 195.601 35.608C194.976 35.233 194.491 34.7083 194.146 34.0341C193.805 33.3598 193.635 32.572 193.635 31.6705C193.635 30.7689 193.805 29.9792 194.146 29.3011C194.491 28.6231 194.976 28.0966 195.601 27.7216C196.226 27.3466 196.964 27.1591 197.817 27.1591C198.669 27.1591 199.408 27.3466 200.033 27.7216C200.658 28.0966 201.141 28.6231 201.482 29.3011C201.826 29.9792 201.999 30.7689 201.999 31.6705C201.999 32.572 201.826 33.3598 201.482 34.0341C201.141 34.7083 200.658 35.233 200.033 35.608C199.408 35.983 198.669 36.1705 197.817 36.1705ZM197.828 34.5227C198.29 34.5227 198.677 34.3958 198.987 34.142C199.298 33.8845 199.529 33.5398 199.68 33.108C199.836 32.6761 199.913 32.1951 199.913 31.6648C199.913 31.1307 199.836 30.6477 199.68 30.2159C199.529 29.7803 199.298 29.4337 198.987 29.1761C198.677 28.9186 198.29 28.7898 197.828 28.7898C197.355 28.7898 196.961 28.9186 196.646 29.1761C196.336 29.4337 196.103 29.7803 195.947 30.2159C195.796 30.6477 195.72 31.1307 195.72 31.6648C195.72 32.1951 195.796 32.6761 195.947 33.108C196.103 33.5398 196.336 33.8845 196.646 34.142C196.961 34.3958 197.355 34.5227 197.828 34.5227ZM202.783 28.9602V27.2727H210.419V28.9602H207.595V36H205.607V28.9602H202.783Z" fill="white"/>
</svg>
